<svg xmlns="http://www.w3.org/2000/svg" xmlns:xlink="http://www.w3.org/1999/xlink" width="500" zoomAndPan="magnify" viewBox="0 0 375 374.999991" height="500" preserveAspectRatio="xMidYMid meet" version="1.0"><defs><g/><clipPath id="f82e7b8848"><path d="M 0 62.109375 L 362 62.109375 L 362 312.609375 L 0 312.609375 Z M 0 62.109375 " clip-rule="nonzero"/></clipPath><clipPath id="69e054dd2c"><path d="M 244 303 L 248 303 L 248 312.609375 L 244 312.609375 Z M 244 303 " clip-rule="nonzero"/></clipPath><clipPath id="bacf45692a"><path d="M 238 303 L 242 303 L 242 312.609375 L 238 312.609375 Z M 238 303 " clip-rule="nonzero"/></clipPath><clipPath id="f233a005d3"><path d="M 232 303 L 236 303 L 236 312.609375 L 232 312.609375 Z M 232 303 " clip-rule="nonzero"/></clipPath><clipPath id="cec99867dc"><path d="M 226 303 L 230 303 L 230 312.609375 L 226 312.609375 Z M 226 303 " clip-rule="nonzero"/></clipPath><clipPath id="6b25eeaf12"><path d="M 220 303 L 224 303 L 224 312.609375 L 220 312.609375 Z M 220 303 " clip-rule="nonzero"/></clipPath><clipPath id="fb648249ad"><path d="M 214 303 L 218 303 L 218 312.609375 L 214 312.609375 Z M 214 303 " clip-rule="nonzero"/></clipPath><clipPath id="9753e585a4"><path d="M 208 303 L 212 303 L 212 312.609375 L 208 312.609375 Z M 208 303 " clip-rule="nonzero"/></clipPath><clipPath id="311386a79a"><path d="M 202 303 L 206 303 L 206 312.609375 L 202 312.609375 Z M 202 303 " clip-rule="nonzero"/></clipPath><clipPath id="0078ded117"><path d="M 195 303 L 200 303 L 200 312.609375 L 195 312.609375 Z M 195 303 " clip-rule="nonzero"/></clipPath><clipPath id="cf991aaffb"><path d="M 189 303 L 194 303 L 194 312.609375 L 189 312.609375 Z M 189 303 " clip-rule="nonzero"/></clipPath><clipPath id="a280e1b118"><path d="M 183 303 L 188 303 L 188 312.609375 L 183 312.609375 Z M 183 303 " clip-rule="nonzero"/></clipPath><clipPath id="628ce105a0"><path d="M 177 303 L 182 303 L 182 312.609375 L 177 312.609375 Z M 177 303 " clip-rule="nonzero"/></clipPath><clipPath id="7db8d3b291"><path d="M 171 303 L 176 303 L 176 312.609375 L 171 312.609375 Z M 171 303 " clip-rule="nonzero"/></clipPath><clipPath id="9ddb13c3e8"><path d="M 165 303 L 170 303 L 170 312.609375 L 165 312.609375 Z M 165 303 " clip-rule="nonzero"/></clipPath><clipPath id="f37c5d917b"><path d="M 159 303 L 164 303 L 164 312.609375 L 159 312.609375 Z M 159 303 " clip-rule="nonzero"/></clipPath><clipPath id="29884004f0"><path d="M 153 303 L 157 303 L 157 312.609375 L 153 312.609375 Z M 153 303 " clip-rule="nonzero"/></clipPath><clipPath id="2f23eb4ad3"><path d="M 147 303 L 151 303 L 151 312.609375 L 147 312.609375 Z M 147 303 " clip-rule="nonzero"/></clipPath><clipPath id="76f374b7aa"><path d="M 141 303 L 145 303 L 145 312.609375 L 141 312.609375 Z M 141 303 " clip-rule="nonzero"/></clipPath><clipPath id="7989646b65"><path d="M 135 303 L 139 303 L 139 312.609375 L 135 312.609375 Z M 135 303 " clip-rule="nonzero"/></clipPath><clipPath id="0f947941b5"><path d="M 129 303 L 133 303 L 133 312.609375 L 129 312.609375 Z M 129 303 " clip-rule="nonzero"/></clipPath><clipPath id="16f2f4d678"><path d="M 123 303 L 127 303 L 127 312.609375 L 123 312.609375 Z M 123 303 " clip-rule="nonzero"/></clipPath><clipPath id="2b06df41a5"><path d="M 117 303 L 121 303 L 121 312.609375 L 117 312.609375 Z M 117 303 " clip-rule="nonzero"/></clipPath><clipPath id="e54cc257eb"><path d="M 111 303 L 115 303 L 115 312.609375 L 111 312.609375 Z M 111 303 " clip-rule="nonzero"/></clipPath><clipPath id="ba4385bced"><path d="M 105 303 L 109 303 L 109 312.609375 L 105 312.609375 Z M 105 303 " clip-rule="nonzero"/></clipPath><clipPath id="22e83aa565"><path d="M 99 303 L 103 303 L 103 312.609375 L 99 312.609375 Z M 99 303 " clip-rule="nonzero"/></clipPath><clipPath id="15958a4550"><path d="M 93 303 L 97 303 L 97 312.609375 L 93 312.609375 Z M 93 303 " clip-rule="nonzero"/></clipPath><clipPath id="e2a205636b"><path d="M 87 303 L 91 303 L 91 312.609375 L 87 312.609375 Z M 87 303 " clip-rule="nonzero"/></clipPath><clipPath id="62cdd5802a"><path d="M 81 303 L 85 303 L 85 312.609375 L 81 312.609375 Z M 81 303 " clip-rule="nonzero"/></clipPath><clipPath id="7d88041d32"><path d="M 75 303 L 79 303 L 79 312.609375 L 75 312.609375 Z M 75 303 " clip-rule="nonzero"/></clipPath><clipPath id="bdb7b8eadc"><path d="M 69 303 L 73 303 L 73 312.609375 L 69 312.609375 Z M 69 303 " clip-rule="nonzero"/></clipPath><clipPath id="19b56ceb24"><path d="M 63 303 L 67 303 L 67 312.609375 L 63 312.609375 Z M 63 303 " clip-rule="nonzero"/></clipPath><clipPath id="7f0db2ae36"><path d="M 57 303 L 61 303 L 61 312.609375 L 57 312.609375 Z M 57 303 " clip-rule="nonzero"/></clipPath><clipPath id="19aadd9bee"><path d="M 51 303 L 55 303 L 55 312.609375 L 51 312.609375 Z M 51 303 " clip-rule="nonzero"/></clipPath><clipPath id="78179214ac"><path d="M 45 303 L 49 303 L 49 312.609375 L 45 312.609375 Z M 45 303 " clip-rule="nonzero"/></clipPath><clipPath id="1d7e73f894"><path d="M 38 303 L 43 303 L 43 312.609375 L 38 312.609375 Z M 38 303 " clip-rule="nonzero"/></clipPath><clipPath id="713dca3f11"><path d="M 32 303 L 37 303 L 37 312.609375 L 32 312.609375 Z M 32 303 " clip-rule="nonzero"/></clipPath><clipPath id="a9dca7d2e2"><path d="M 26 303 L 31 303 L 31 312.609375 L 26 312.609375 Z M 26 303 " clip-rule="nonzero"/></clipPath><clipPath id="34bf7e432d"><path d="M 20 303 L 25 303 L 25 312.609375 L 20 312.609375 Z M 20 303 " clip-rule="nonzero"/></clipPath><clipPath id="82f7ab2a3d"><path d="M 14 303 L 19 303 L 19 312.609375 L 14 312.609375 Z M 14 303 " clip-rule="nonzero"/></clipPath><clipPath id="9244f3792c"><path d="M 352 303 L 357 303 L 357 312.609375 L 352 312.609375 Z M 352 303 " clip-rule="nonzero"/></clipPath><clipPath id="b2f6047776"><path d="M 346 303 L 351 303 L 351 312.609375 L 346 312.609375 Z M 346 303 " clip-rule="nonzero"/></clipPath><clipPath id="22b1bca35b"><path d="M 340 303 L 345 303 L 345 312.609375 L 340 312.609375 Z M 340 303 " clip-rule="nonzero"/></clipPath><clipPath id="0246d8b8c8"><path d="M 334 303 L 339 303 L 339 312.609375 L 334 312.609375 Z M 334 303 " clip-rule="nonzero"/></clipPath><clipPath id="e6490b35cb"><path d="M 328 303 L 333 303 L 333 312.609375 L 328 312.609375 Z M 328 303 " clip-rule="nonzero"/></clipPath><clipPath id="9a915dd80a"><path d="M 322 303 L 327 303 L 327 312.609375 L 322 312.609375 Z M 322 303 " clip-rule="nonzero"/></clipPath><clipPath id="33317fdc16"><path d="M 316 303 L 321 303 L 321 312.609375 L 316 312.609375 Z M 316 303 " clip-rule="nonzero"/></clipPath><clipPath id="0c8b7f38cd"><path d="M 310 303 L 314 303 L 314 312.609375 L 310 312.609375 Z M 310 303 " clip-rule="nonzero"/></clipPath><clipPath id="c6619be65a"><path d="M 304 303 L 308 303 L 308 312.609375 L 304 312.609375 Z M 304 303 " clip-rule="nonzero"/></clipPath><clipPath id="74a800a31b"><path d="M 298 303 L 302 303 L 302 312.609375 L 298 312.609375 Z M 298 303 " clip-rule="nonzero"/></clipPath><clipPath id="bd661c7a71"><path d="M 292 303 L 296 303 L 296 312.609375 L 292 312.609375 Z M 292 303 " clip-rule="nonzero"/></clipPath><clipPath id="687036699f"><path d="M 286 303 L 290 303 L 290 312.609375 L 286 312.609375 Z M 286 303 " clip-rule="nonzero"/></clipPath><clipPath id="4e68d4cb92"><path d="M 280 303 L 284 303 L 284 312.609375 L 280 312.609375 Z M 280 303 " clip-rule="nonzero"/></clipPath><clipPath id="53ec9439c2"><path d="M 274 303 L 278 303 L 278 312.609375 L 274 312.609375 Z M 274 303 " clip-rule="nonzero"/></clipPath><clipPath id="8934e6661c"><path d="M 268 303 L 272 303 L 272 312.609375 L 268 312.609375 Z M 268 303 " clip-rule="nonzero"/></clipPath><clipPath id="d5d861c77e"><path d="M 262 303 L 266 303 L 266 312.609375 L 262 312.609375 Z M 262 303 " clip-rule="nonzero"/></clipPath><clipPath id="a661c4adae"><path d="M 256 303 L 260 303 L 260 312.609375 L 256 312.609375 Z M 256 303 " clip-rule="nonzero"/></clipPath><clipPath id="c0313f8e2d"><path d="M 250 303 L 254 303 L 254 312.609375 L 250 312.609375 Z M 250 303 " clip-rule="nonzero"/></clipPath><clipPath id="2e1829b207"><path d="M 244 303 L 248 303 L 248 312.609375 L 244 312.609375 Z M 244 303 " clip-rule="nonzero"/></clipPath><clipPath id="ed0170e7fb"><path d="M 238 303 L 242 303 L 242 312.609375 L 238 312.609375 Z M 238 303 " clip-rule="nonzero"/></clipPath><clipPath id="a8ac8570d7"><path d="M 232 303 L 236 303 L 236 312.609375 L 232 312.609375 Z M 232 303 " clip-rule="nonzero"/></clipPath><clipPath id="856a236887"><path d="M 226 303 L 230 303 L 230 312.609375 L 226 312.609375 Z M 226 303 " clip-rule="nonzero"/></clipPath><clipPath id="a30ad63c32"><path d="M 220 303 L 224 303 L 224 312.609375 L 220 312.609375 Z M 220 303 " clip-rule="nonzero"/></clipPath><clipPath id="8937ad302a"><path d="M 214 303 L 218 303 L 218 312.609375 L 214 312.609375 Z M 214 303 " clip-rule="nonzero"/></clipPath><clipPath id="ca2fe78866"><path d="M 208 303 L 212 303 L 212 312.609375 L 208 312.609375 Z M 208 303 " clip-rule="nonzero"/></clipPath><clipPath id="dcd17141ca"><path d="M 202 303 L 206 303 L 206 312.609375 L 202 312.609375 Z M 202 303 " clip-rule="nonzero"/></clipPath><clipPath id="02e315551d"><path d="M 195 303 L 200 303 L 200 312.609375 L 195 312.609375 Z M 195 303 " clip-rule="nonzero"/></clipPath><clipPath id="90e71745c3"><path d="M 189 303 L 194 303 L 194 312.609375 L 189 312.609375 Z M 189 303 " clip-rule="nonzero"/></clipPath><clipPath id="5d821dfcba"><path d="M 183 303 L 188 303 L 188 312.609375 L 183 312.609375 Z M 183 303 " clip-rule="nonzero"/></clipPath><clipPath id="b195d64a45"><path d="M 177 303 L 182 303 L 182 312.609375 L 177 312.609375 Z M 177 303 " clip-rule="nonzero"/></clipPath><clipPath id="3604998416"><path d="M 171 303 L 176 303 L 176 312.609375 L 171 312.609375 Z M 171 303 " clip-rule="nonzero"/></clipPath><clipPath id="e62f05aa5a"><path d="M 165 303 L 170 303 L 170 312.609375 L 165 312.609375 Z M 165 303 " clip-rule="nonzero"/></clipPath><clipPath id="d4393c858f"><path d="M 159 303 L 164 303 L 164 312.609375 L 159 312.609375 Z M 159 303 " clip-rule="nonzero"/></clipPath><clipPath id="b165f03621"><path d="M 153 303 L 157 303 L 157 312.609375 L 153 312.609375 Z M 153 303 " clip-rule="nonzero"/></clipPath><clipPath id="8f4c101ccf"><path d="M 147 303 L 151 303 L 151 312.609375 L 147 312.609375 Z M 147 303 " clip-rule="nonzero"/></clipPath><clipPath id="074fc47cd4"><path d="M 141 303 L 145 303 L 145 312.609375 L 141 312.609375 Z M 141 303 " clip-rule="nonzero"/></clipPath><clipPath id="88b7af7f28"><path d="M 135 303 L 139 303 L 139 312.609375 L 135 312.609375 Z M 135 303 " clip-rule="nonzero"/></clipPath><clipPath id="bd79e6c296"><path d="M 129 303 L 133 303 L 133 312.609375 L 129 312.609375 Z M 129 303 " clip-rule="nonzero"/></clipPath><clipPath id="6f365ce74a"><path d="M 123 303 L 127 303 L 127 312.609375 L 123 312.609375 Z M 123 303 " clip-rule="nonzero"/></clipPath></defs><g clip-path="url(#f82e7b8848)"><path fill="#ffffff" d="M 359.40625 312.871094 L 2 312.871094 C 1.09375 312.871094 0.355469 312.132812 0.355469 311.230469 L 0.355469 63.777344 C 0.355469 62.867188 1.09375 62.128906 2 62.128906 C 2.914062 62.128906 3.648438 62.867188 3.648438 63.777344 L 3.648438 309.585938 L 359.40625 309.585938 C 360.320312 309.585938 361.054688 310.320312 361.054688 311.230469 C 361.054688 312.132812 360.320312 312.871094 359.40625 312.871094 " fill-opacity="1" fill-rule="nonzero"/></g><path fill="#ffffff" d="M 7.96875 71.324219 L 2.582031 71.324219 C 1.671875 71.324219 0.9375 70.582031 0.9375 69.675781 C 0.9375 68.765625 1.671875 68.03125 2.582031 68.03125 L 7.96875 68.03125 C 8.871094 68.03125 9.609375 68.765625 9.609375 69.675781 C 9.609375 70.582031 8.871094 71.324219 7.96875 71.324219 " fill-opacity="1" fill-rule="nonzero"/><path fill="#ffffff" d="M 7.96875 77.359375 L 2.582031 77.359375 C 1.671875 77.359375 0.9375 76.625 0.9375 75.71875 C 0.9375 74.808594 1.671875 74.070312 2.582031 74.070312 L 7.96875 74.070312 C 8.871094 74.070312 9.609375 74.808594 9.609375 75.71875 C 9.609375 76.625 8.871094 77.359375 7.96875 77.359375 " fill-opacity="1" fill-rule="nonzero"/><path fill="#ffffff" d="M 7.96875 83.394531 L 2.582031 83.394531 C 1.671875 83.394531 0.9375 82.660156 0.9375 81.75 C 0.9375 80.84375 1.671875 80.109375 2.582031 80.109375 L 7.96875 80.109375 C 8.871094 80.109375 9.609375 80.84375 9.609375 81.75 C 9.609375 82.660156 8.871094 83.394531 7.96875 83.394531 " fill-opacity="1" fill-rule="nonzero"/><path fill="#ffffff" d="M 7.96875 89.4375 L 2.582031 89.4375 C 1.671875 89.4375 0.9375 88.703125 0.9375 87.792969 C 0.9375 86.882812 1.671875 86.148438 2.582031 86.148438 L 7.96875 86.148438 C 8.871094 86.148438 9.609375 86.882812 9.609375 87.792969 C 9.609375 88.703125 8.871094 89.4375 7.96875 89.4375 " fill-opacity="1" fill-rule="nonzero"/><path fill="#ffffff" d="M 7.96875 95.476562 L 2.582031 95.476562 C 1.671875 95.476562 0.9375 94.746094 0.9375 93.828125 C 0.9375 92.921875 1.671875 92.179688 2.582031 92.179688 L 7.96875 92.179688 C 8.871094 92.179688 9.609375 92.921875 9.609375 93.828125 C 9.609375 94.746094 8.871094 95.476562 7.96875 95.476562 " fill-opacity="1" fill-rule="nonzero"/><path fill="#ffffff" d="M 7.96875 101.515625 L 2.582031 101.515625 C 1.671875 101.515625 0.9375 100.777344 0.9375 99.867188 C 0.9375 98.964844 1.671875 98.21875 2.582031 98.21875 L 7.96875 98.21875 C 8.871094 98.21875 9.609375 98.964844 9.609375 99.867188 C 9.609375 100.777344 8.871094 101.515625 7.96875 101.515625 " fill-opacity="1" fill-rule="nonzero"/><path fill="#ffffff" d="M 7.96875 107.546875 L 2.582031 107.546875 C 1.671875 107.546875 0.9375 106.816406 0.9375 105.910156 C 0.9375 105 1.671875 104.261719 2.582031 104.261719 L 7.96875 104.261719 C 8.871094 104.261719 9.609375 105 9.609375 105.910156 C 9.609375 106.816406 8.871094 107.546875 7.96875 107.546875 " fill-opacity="1" fill-rule="nonzero"/><path fill="#ffffff" d="M 7.96875 113.589844 L 2.582031 113.589844 C 1.671875 113.589844 0.9375 112.851562 0.9375 111.941406 C 0.9375 111.035156 1.671875 110.300781 2.582031 110.300781 L 7.96875 110.300781 C 8.871094 110.300781 9.609375 111.035156 9.609375 111.941406 C 9.609375 112.851562 8.871094 113.589844 7.96875 113.589844 " fill-opacity="1" fill-rule="nonzero"/><path fill="#ffffff" d="M 7.96875 119.628906 L 2.582031 119.628906 C 1.671875 119.628906 0.9375 118.894531 0.9375 117.984375 C 0.9375 117.070312 1.671875 116.335938 2.582031 116.335938 L 7.96875 116.335938 C 8.871094 116.335938 9.609375 117.070312 9.609375 117.984375 C 9.609375 118.894531 8.871094 119.628906 7.96875 119.628906 " fill-opacity="1" fill-rule="nonzero"/><path fill="#ffffff" d="M 7.96875 125.667969 L 2.582031 125.667969 C 1.671875 125.667969 0.9375 124.9375 0.9375 124.019531 C 0.9375 123.113281 1.671875 122.371094 2.582031 122.371094 L 7.96875 122.371094 C 8.871094 122.371094 9.609375 123.113281 9.609375 124.019531 C 9.609375 124.9375 8.871094 125.667969 7.96875 125.667969 " fill-opacity="1" fill-rule="nonzero"/><path fill="#ffffff" d="M 7.96875 131.710938 L 2.582031 131.710938 C 1.671875 131.710938 0.9375 130.96875 0.9375 130.058594 C 0.9375 129.152344 1.671875 128.410156 2.582031 128.410156 L 7.96875 128.410156 C 8.871094 128.410156 9.609375 129.152344 9.609375 130.058594 C 9.609375 130.96875 8.871094 131.710938 7.96875 131.710938 " fill-opacity="1" fill-rule="nonzero"/><path fill="#ffffff" d="M 7.96875 137.746094 L 2.582031 137.746094 C 1.671875 137.746094 0.9375 137.007812 0.9375 136.101562 C 0.9375 135.183594 1.671875 134.453125 2.582031 134.453125 L 7.96875 134.453125 C 8.871094 134.453125 9.609375 135.183594 9.609375 136.101562 C 9.609375 137.007812 8.871094 137.746094 7.96875 137.746094 " fill-opacity="1" fill-rule="nonzero"/><path fill="#ffffff" d="M 7.96875 143.78125 L 2.582031 143.78125 C 1.671875 143.78125 0.9375 143.039062 0.9375 142.132812 C 0.9375 141.226562 1.671875 140.492188 2.582031 140.492188 L 7.96875 140.492188 C 8.871094 140.492188 9.609375 141.226562 9.609375 142.132812 C 9.609375 143.039062 8.871094 143.78125 7.96875 143.78125 " fill-opacity="1" fill-rule="nonzero"/><path fill="#ffffff" d="M 7.96875 149.820312 L 2.582031 149.820312 C 1.671875 149.820312 0.9375 149.078125 0.9375 148.175781 C 0.9375 147.261719 1.671875 146.527344 2.582031 146.527344 L 7.96875 146.527344 C 8.871094 146.527344 9.609375 147.261719 9.609375 148.175781 C 9.609375 149.078125 8.871094 149.820312 7.96875 149.820312 " fill-opacity="1" fill-rule="nonzero"/><path fill="#ffffff" d="M 7.96875 155.859375 L 2.582031 155.859375 C 1.671875 155.859375 0.9375 155.128906 0.9375 154.210938 C 0.9375 153.304688 1.671875 152.566406 2.582031 152.566406 L 7.96875 152.566406 C 8.871094 152.566406 9.609375 153.304688 9.609375 154.210938 C 9.609375 155.128906 8.871094 155.859375 7.96875 155.859375 " fill-opacity="1" fill-rule="nonzero"/><path fill="#ffffff" d="M 7.96875 161.902344 L 2.582031 161.902344 C 1.671875 161.902344 0.9375 161.160156 0.9375 160.253906 C 0.9375 159.339844 1.671875 158.605469 2.582031 158.605469 L 7.96875 158.605469 C 8.871094 158.605469 9.609375 159.339844 9.609375 160.253906 C 9.609375 161.160156 8.871094 161.902344 7.96875 161.902344 " fill-opacity="1" fill-rule="nonzero"/><path fill="#ffffff" d="M 7.96875 167.933594 L 2.582031 167.933594 C 1.671875 167.933594 0.9375 167.199219 0.9375 166.28125 C 0.9375 165.375 1.671875 164.644531 2.582031 164.644531 L 7.96875 164.644531 C 8.871094 164.644531 9.609375 165.375 9.609375 166.28125 C 9.609375 167.199219 8.871094 167.933594 7.96875 167.933594 " fill-opacity="1" fill-rule="nonzero"/><path fill="#ffffff" d="M 7.96875 173.972656 L 2.582031 173.972656 C 1.671875 173.972656 0.9375 173.234375 0.9375 172.324219 C 0.9375 171.417969 1.671875 170.683594 2.582031 170.683594 L 7.96875 170.683594 C 8.871094 170.683594 9.609375 171.417969 9.609375 172.324219 C 9.609375 173.234375 8.871094 173.972656 7.96875 173.972656 " fill-opacity="1" fill-rule="nonzero"/><path fill="#ffffff" d="M 7.96875 180.011719 L 2.582031 180.011719 C 1.671875 180.011719 0.9375 179.277344 0.9375 178.367188 C 0.9375 177.460938 1.671875 176.726562 2.582031 176.726562 L 7.96875 176.726562 C 8.871094 176.726562 9.609375 177.460938 9.609375 178.367188 C 9.609375 179.277344 8.871094 180.011719 7.96875 180.011719 " fill-opacity="1" fill-rule="nonzero"/><path fill="#ffffff" d="M 7.96875 186.050781 L 2.582031 186.050781 C 1.671875 186.050781 0.9375 185.308594 0.9375 184.40625 C 0.9375 183.492188 1.671875 182.757812 2.582031 182.757812 L 7.96875 182.757812 C 8.871094 182.757812 9.609375 183.492188 9.609375 184.40625 C 9.609375 185.308594 8.871094 186.050781 7.96875 186.050781 " fill-opacity="1" fill-rule="nonzero"/><path fill="#ffffff" d="M 7.96875 192.085938 L 2.582031 192.085938 C 1.671875 192.085938 0.9375 191.351562 0.9375 190.445312 C 0.9375 189.53125 1.671875 188.796875 2.582031 188.796875 L 7.96875 188.796875 C 8.871094 188.796875 9.609375 189.53125 9.609375 190.445312 C 9.609375 191.351562 8.871094 192.085938 7.96875 192.085938 " fill-opacity="1" fill-rule="nonzero"/><path fill="#ffffff" d="M 7.96875 198.125 L 2.582031 198.125 C 1.671875 198.125 0.9375 197.394531 0.9375 196.476562 C 0.9375 195.570312 1.671875 194.832031 2.582031 194.832031 L 7.96875 194.832031 C 8.871094 194.832031 9.609375 195.570312 9.609375 196.476562 C 9.609375 197.394531 8.871094 198.125 7.96875 198.125 " fill-opacity="1" fill-rule="nonzero"/><path fill="#ffffff" d="M 7.96875 204.164062 L 2.582031 204.164062 C 1.671875 204.164062 0.9375 203.429688 0.9375 202.515625 C 0.9375 201.609375 1.671875 200.875 2.582031 200.875 L 7.96875 200.875 C 8.871094 200.875 9.609375 201.609375 9.609375 202.515625 C 9.609375 203.429688 8.871094 204.164062 7.96875 204.164062 " fill-opacity="1" fill-rule="nonzero"/><path fill="#ffffff" d="M 7.96875 210.199219 L 2.582031 210.199219 C 1.671875 210.199219 0.9375 209.464844 0.9375 208.558594 C 0.9375 207.652344 1.671875 206.910156 2.582031 206.910156 L 7.96875 206.910156 C 8.871094 206.910156 9.609375 207.652344 9.609375 208.558594 C 9.609375 209.464844 8.871094 210.199219 7.96875 210.199219 " fill-opacity="1" fill-rule="nonzero"/><path fill="#ffffff" d="M 7.96875 216.238281 L 2.582031 216.238281 C 1.671875 216.238281 0.9375 215.5 0.9375 214.597656 C 0.9375 213.683594 1.671875 212.949219 2.582031 212.949219 L 7.96875 212.949219 C 8.871094 212.949219 9.609375 213.683594 9.609375 214.597656 C 9.609375 215.5 8.871094 216.238281 7.96875 216.238281 " fill-opacity="1" fill-rule="nonzero"/><path fill="#ffffff" d="M 7.96875 222.277344 L 2.582031 222.277344 C 1.671875 222.277344 0.9375 221.542969 0.9375 220.636719 C 0.9375 219.726562 1.671875 218.988281 2.582031 218.988281 L 7.96875 218.988281 C 8.871094 218.988281 9.609375 219.726562 9.609375 220.636719 C 9.609375 221.542969 8.871094 222.277344 7.96875 222.277344 " fill-opacity="1" fill-rule="nonzero"/><path fill="#ffffff" d="M 7.96875 228.316406 L 2.582031 228.316406 C 1.671875 228.316406 0.9375 227.582031 0.9375 226.667969 C 0.9375 225.761719 1.671875 225.023438 2.582031 225.023438 L 7.96875 225.023438 C 8.871094 225.023438 9.609375 225.761719 9.609375 226.667969 C 9.609375 227.582031 8.871094 228.316406 7.96875 228.316406 " fill-opacity="1" fill-rule="nonzero"/><path fill="#ffffff" d="M 7.96875 234.359375 L 2.582031 234.359375 C 1.671875 234.359375 0.9375 233.621094 0.9375 232.707031 C 0.9375 231.800781 1.671875 231.058594 2.582031 231.058594 L 7.96875 231.058594 C 8.871094 231.058594 9.609375 231.800781 9.609375 232.707031 C 9.609375 233.621094 8.871094 234.359375 7.96875 234.359375 " fill-opacity="1" fill-rule="nonzero"/><path fill="#ffffff" d="M 7.96875 240.398438 L 2.582031 240.398438 C 1.671875 240.398438 0.9375 239.652344 0.9375 238.746094 C 0.9375 237.832031 1.671875 237.097656 2.582031 237.097656 L 7.96875 237.097656 C 8.871094 237.097656 9.609375 237.832031 9.609375 238.746094 C 9.609375 239.652344 8.871094 240.398438 7.96875 240.398438 " fill-opacity="1" fill-rule="nonzero"/><path fill="#ffffff" d="M 7.96875 246.433594 L 2.582031 246.433594 C 1.671875 246.433594 0.9375 245.699219 0.9375 244.785156 C 0.9375 243.875 1.671875 243.140625 2.582031 243.140625 L 7.96875 243.140625 C 8.871094 243.140625 9.609375 243.875 9.609375 244.785156 C 9.609375 245.699219 8.871094 246.433594 7.96875 246.433594 " fill-opacity="1" fill-rule="nonzero"/><path fill="#ffffff" d="M 7.96875 252.46875 L 2.582031 252.46875 C 1.671875 252.46875 0.9375 251.734375 0.9375 250.828125 C 0.9375 249.921875 1.671875 249.179688 2.582031 249.179688 L 7.96875 249.179688 C 8.871094 249.179688 9.609375 249.921875 9.609375 250.828125 C 9.609375 251.734375 8.871094 252.46875 7.96875 252.46875 " fill-opacity="1" fill-rule="nonzero"/><path fill="#ffffff" d="M 7.96875 258.507812 L 2.582031 258.507812 C 1.671875 258.507812 0.9375 257.773438 0.9375 256.859375 C 0.9375 255.953125 1.671875 255.214844 2.582031 255.214844 L 7.96875 255.214844 C 8.871094 255.214844 9.609375 255.953125 9.609375 256.859375 C 9.609375 257.773438 8.871094 258.507812 7.96875 258.507812 " fill-opacity="1" fill-rule="nonzero"/><path fill="#ffffff" d="M 7.96875 264.542969 L 2.582031 264.542969 C 1.671875 264.542969 0.9375 263.808594 0.9375 262.902344 C 0.9375 261.992188 1.671875 261.257812 2.582031 261.257812 L 7.96875 261.257812 C 8.871094 261.257812 9.609375 261.992188 9.609375 262.902344 C 9.609375 263.808594 8.871094 264.542969 7.96875 264.542969 " fill-opacity="1" fill-rule="nonzero"/><path fill="#ffffff" d="M 7.96875 270.585938 L 2.582031 270.585938 C 1.671875 270.585938 0.9375 269.84375 0.9375 268.9375 C 0.9375 268.023438 1.671875 267.289062 2.582031 267.289062 L 7.96875 267.289062 C 8.871094 267.289062 9.609375 268.023438 9.609375 268.9375 C 9.609375 269.84375 8.871094 270.585938 7.96875 270.585938 " fill-opacity="1" fill-rule="nonzero"/><path fill="#ffffff" d="M 7.96875 276.625 L 2.582031 276.625 C 1.671875 276.625 0.9375 275.886719 0.9375 274.972656 C 0.9375 274.066406 1.671875 273.332031 2.582031 273.332031 L 7.96875 273.332031 C 8.871094 273.332031 9.609375 274.066406 9.609375 274.972656 C 9.609375 275.886719 8.871094 276.625 7.96875 276.625 " fill-opacity="1" fill-rule="nonzero"/><path fill="#ffffff" d="M 7.96875 282.65625 L 2.582031 282.65625 C 1.671875 282.65625 0.9375 281.925781 0.9375 281.019531 C 0.9375 280.109375 1.671875 279.367188 2.582031 279.367188 L 7.96875 279.367188 C 8.871094 279.367188 9.609375 280.109375 9.609375 281.019531 C 9.609375 281.925781 8.871094 282.65625 7.96875 282.65625 " fill-opacity="1" fill-rule="nonzero"/><path fill="#ffffff" d="M 7.96875 288.699219 L 2.582031 288.699219 C 1.671875 288.699219 0.9375 287.960938 0.9375 287.050781 C 0.9375 286.144531 1.671875 285.410156 2.582031 285.410156 L 7.96875 285.410156 C 8.871094 285.410156 9.609375 286.144531 9.609375 287.050781 C 9.609375 287.960938 8.871094 288.699219 7.96875 288.699219 " fill-opacity="1" fill-rule="nonzero"/><path fill="#ffffff" d="M 7.96875 294.742188 L 2.582031 294.742188 C 1.671875 294.742188 0.9375 294 0.9375 293.09375 C 0.9375 292.183594 1.671875 291.445312 2.582031 291.445312 L 7.96875 291.445312 C 8.871094 291.445312 9.609375 292.183594 9.609375 293.09375 C 9.609375 294 8.871094 294.742188 7.96875 294.742188 " fill-opacity="1" fill-rule="nonzero"/><path fill="#ffffff" d="M 7.96875 300.773438 L 2.582031 300.773438 C 1.671875 300.773438 0.9375 300.039062 0.9375 299.128906 C 0.9375 298.214844 1.671875 297.480469 2.582031 297.480469 L 7.96875 297.480469 C 8.871094 297.480469 9.609375 298.214844 9.609375 299.128906 C 9.609375 300.039062 8.871094 300.773438 7.96875 300.773438 " fill-opacity="1" fill-rule="nonzero"/><g clip-path="url(#69e054dd2c)"><path fill="#ffffff" d="M 245.925781 312.191406 C 245.015625 312.191406 244.28125 311.449219 244.28125 310.542969 L 244.28125 305.160156 C 244.28125 304.253906 245.015625 303.511719 245.925781 303.511719 C 246.839844 303.511719 247.578125 304.253906 247.578125 305.160156 L 247.578125 310.542969 C 247.578125 311.449219 246.839844 312.191406 245.925781 312.191406 " fill-opacity="1" fill-rule="nonzero"/></g><g clip-path="url(#bacf45692a)"><path fill="#ffffff" d="M 239.886719 312.191406 C 238.976562 312.191406 238.242188 311.449219 238.242188 310.542969 L 238.242188 305.160156 C 238.242188 304.253906 238.976562 303.511719 239.886719 303.511719 C 240.796875 303.511719 241.535156 304.253906 241.535156 305.160156 L 241.535156 310.542969 C 241.535156 311.449219 240.796875 312.191406 239.886719 312.191406 " fill-opacity="1" fill-rule="nonzero"/></g><g clip-path="url(#f233a005d3)"><path fill="#ffffff" d="M 233.851562 312.191406 C 232.945312 312.191406 232.207031 311.449219 232.207031 310.542969 L 232.207031 305.160156 C 232.207031 304.253906 232.945312 303.511719 233.851562 303.511719 C 234.757812 303.511719 235.5 304.253906 235.5 305.160156 L 235.5 310.542969 C 235.5 311.449219 234.757812 312.191406 233.851562 312.191406 " fill-opacity="1" fill-rule="nonzero"/></g><g clip-path="url(#cec99867dc)"><path fill="#ffffff" d="M 227.816406 312.191406 C 226.90625 312.191406 226.167969 311.449219 226.167969 310.542969 L 226.167969 305.160156 C 226.167969 304.253906 226.90625 303.511719 227.816406 303.511719 C 228.722656 303.511719 229.457031 304.253906 229.457031 305.160156 L 229.457031 310.542969 C 229.457031 311.449219 228.722656 312.191406 227.816406 312.191406 " fill-opacity="1" fill-rule="nonzero"/></g><g clip-path="url(#6b25eeaf12)"><path fill="#ffffff" d="M 221.78125 312.191406 C 220.867188 312.191406 220.132812 311.449219 220.132812 310.542969 L 220.132812 305.160156 C 220.132812 304.253906 220.867188 303.511719 221.78125 303.511719 C 222.679688 303.511719 223.421875 304.253906 223.421875 305.160156 L 223.421875 310.542969 C 223.421875 311.449219 222.679688 312.191406 221.78125 312.191406 " fill-opacity="1" fill-rule="nonzero"/></g><g clip-path="url(#fb648249ad)"><path fill="#ffffff" d="M 215.738281 312.191406 C 214.828125 312.191406 214.089844 311.449219 214.089844 310.542969 L 214.089844 305.160156 C 214.089844 304.253906 214.828125 303.511719 215.738281 303.511719 C 216.648438 303.511719 217.386719 304.253906 217.386719 305.160156 L 217.386719 310.542969 C 217.386719 311.449219 216.648438 312.191406 215.738281 312.191406 " fill-opacity="1" fill-rule="nonzero"/></g><g clip-path="url(#9753e585a4)"><path fill="#ffffff" d="M 209.695312 312.191406 C 208.785156 312.191406 208.050781 311.449219 208.050781 310.542969 L 208.050781 305.160156 C 208.050781 304.253906 208.785156 303.511719 209.695312 303.511719 C 210.605469 303.511719 211.34375 304.253906 211.34375 305.160156 L 211.34375 310.542969 C 211.34375 311.449219 210.605469 312.191406 209.695312 312.191406 " fill-opacity="1" fill-rule="nonzero"/></g><g clip-path="url(#311386a79a)"><path fill="#ffffff" d="M 203.660156 312.191406 C 202.753906 312.191406 202.011719 311.449219 202.011719 310.542969 L 202.011719 305.160156 C 202.011719 304.253906 202.753906 303.511719 203.660156 303.511719 C 204.566406 303.511719 205.308594 304.253906 205.308594 305.160156 L 205.308594 310.542969 C 205.308594 311.449219 204.566406 312.191406 203.660156 312.191406 " fill-opacity="1" fill-rule="nonzero"/></g><g clip-path="url(#0078ded117)"><path fill="#ffffff" d="M 197.621094 312.191406 C 196.710938 312.191406 195.976562 311.449219 195.976562 310.542969 L 195.976562 305.160156 C 195.976562 304.253906 196.710938 303.511719 197.621094 303.511719 C 198.53125 303.511719 199.265625 304.253906 199.265625 305.160156 L 199.265625 310.542969 C 199.265625 311.449219 198.53125 312.191406 197.621094 312.191406 " fill-opacity="1" fill-rule="nonzero"/></g><g clip-path="url(#cf991aaffb)"><path fill="#ffffff" d="M 191.585938 312.191406 C 190.671875 312.191406 189.941406 311.449219 189.941406 310.542969 L 189.941406 305.160156 C 189.941406 304.253906 190.671875 303.511719 191.585938 303.511719 C 192.492188 303.511719 193.226562 304.253906 193.226562 305.160156 L 193.226562 310.542969 C 193.226562 311.449219 192.492188 312.191406 191.585938 312.191406 " fill-opacity="1" fill-rule="nonzero"/></g><g clip-path="url(#a280e1b118)"><path fill="#ffffff" d="M 185.546875 312.191406 C 184.636719 312.191406 183.898438 311.449219 183.898438 310.542969 L 183.898438 305.160156 C 183.898438 304.253906 184.636719 303.511719 185.546875 303.511719 C 186.453125 303.511719 187.1875 304.253906 187.1875 305.160156 L 187.1875 310.542969 C 187.1875 311.449219 186.453125 312.191406 185.546875 312.191406 " fill-opacity="1" fill-rule="nonzero"/></g><g clip-path="url(#628ce105a0)"><path fill="#ffffff" d="M 179.503906 312.191406 C 178.59375 312.191406 177.859375 311.449219 177.859375 310.542969 L 177.859375 305.160156 C 177.859375 304.253906 178.59375 303.511719 179.503906 303.511719 C 180.414062 303.511719 181.152344 304.253906 181.152344 305.160156 L 181.152344 310.542969 C 181.152344 311.449219 180.414062 312.191406 179.503906 312.191406 " fill-opacity="1" fill-rule="nonzero"/></g><g clip-path="url(#7db8d3b291)"><path fill="#ffffff" d="M 173.472656 312.191406 C 172.5625 312.191406 171.824219 311.449219 171.824219 310.542969 L 171.824219 305.160156 C 171.824219 304.253906 172.5625 303.511719 173.472656 303.511719 C 174.378906 303.511719 175.117188 304.253906 175.117188 305.160156 L 175.117188 310.542969 C 175.117188 311.449219 174.378906 312.191406 173.472656 312.191406 " fill-opacity="1" fill-rule="nonzero"/></g><g clip-path="url(#9ddb13c3e8)"><path fill="#ffffff" d="M 167.429688 312.191406 C 166.519531 312.191406 165.785156 311.449219 165.785156 310.542969 L 165.785156 305.160156 C 165.785156 304.253906 166.519531 303.511719 167.429688 303.511719 C 168.339844 303.511719 169.074219 304.253906 169.074219 305.160156 L 169.074219 310.542969 C 169.074219 311.449219 168.339844 312.191406 167.429688 312.191406 " fill-opacity="1" fill-rule="nonzero"/></g><g clip-path="url(#f37c5d917b)"><path fill="#ffffff" d="M 161.394531 312.191406 C 160.488281 312.191406 159.746094 311.449219 159.746094 310.542969 L 159.746094 305.160156 C 159.746094 304.253906 160.488281 303.511719 161.394531 303.511719 C 162.300781 303.511719 163.039062 304.253906 163.039062 305.160156 L 163.039062 310.542969 C 163.039062 311.449219 162.300781 312.191406 161.394531 312.191406 " fill-opacity="1" fill-rule="nonzero"/></g><g clip-path="url(#29884004f0)"><path fill="#ffffff" d="M 155.355469 312.191406 C 154.445312 312.191406 153.707031 311.449219 153.707031 310.542969 L 153.707031 305.160156 C 153.707031 304.253906 154.445312 303.511719 155.355469 303.511719 C 156.265625 303.511719 156.996094 304.253906 156.996094 305.160156 L 156.996094 310.542969 C 156.996094 311.449219 156.265625 312.191406 155.355469 312.191406 " fill-opacity="1" fill-rule="nonzero"/></g><g clip-path="url(#2f23eb4ad3)"><path fill="#ffffff" d="M 149.3125 312.191406 C 148.402344 312.191406 147.664062 311.449219 147.664062 310.542969 L 147.664062 305.160156 C 147.664062 304.253906 148.402344 303.511719 149.3125 303.511719 C 150.222656 303.511719 150.960938 304.253906 150.960938 305.160156 L 150.960938 310.542969 C 150.960938 311.449219 150.222656 312.191406 149.3125 312.191406 " fill-opacity="1" fill-rule="nonzero"/></g><g clip-path="url(#76f374b7aa)"><path fill="#ffffff" d="M 143.273438 312.191406 C 142.367188 312.191406 141.632812 311.449219 141.632812 310.542969 L 141.632812 305.160156 C 141.632812 304.253906 142.367188 303.511719 143.273438 303.511719 C 144.1875 303.511719 144.925781 304.253906 144.925781 305.160156 L 144.925781 310.542969 C 144.925781 311.449219 144.1875 312.191406 143.273438 312.191406 " fill-opacity="1" fill-rule="nonzero"/></g><g clip-path="url(#7989646b65)"><path fill="#ffffff" d="M 137.234375 312.191406 C 136.328125 312.191406 135.59375 311.449219 135.59375 310.542969 L 135.59375 305.160156 C 135.59375 304.253906 136.328125 303.511719 137.234375 303.511719 C 138.148438 303.511719 138.882812 304.253906 138.882812 305.160156 L 138.882812 310.542969 C 138.882812 311.449219 138.148438 312.191406 137.234375 312.191406 " fill-opacity="1" fill-rule="nonzero"/></g><g clip-path="url(#0f947941b5)"><path fill="#ffffff" d="M 131.203125 312.191406 C 130.296875 312.191406 129.554688 311.449219 129.554688 310.542969 L 129.554688 305.160156 C 129.554688 304.253906 130.296875 303.511719 131.203125 303.511719 C 132.109375 303.511719 132.847656 304.253906 132.847656 305.160156 L 132.847656 310.542969 C 132.847656 311.449219 132.109375 312.191406 131.203125 312.191406 " fill-opacity="1" fill-rule="nonzero"/></g><g clip-path="url(#16f2f4d678)"><path fill="#ffffff" d="M 125.164062 312.191406 C 124.253906 312.191406 123.515625 311.449219 123.515625 310.542969 L 123.515625 305.160156 C 123.515625 304.253906 124.253906 303.511719 125.164062 303.511719 C 126.074219 303.511719 126.808594 304.253906 126.808594 305.160156 L 126.808594 310.542969 C 126.808594 311.449219 126.074219 312.191406 125.164062 312.191406 " fill-opacity="1" fill-rule="nonzero"/></g><g clip-path="url(#2b06df41a5)"><path fill="#ffffff" d="M 119.128906 312.191406 C 118.214844 312.191406 117.472656 311.449219 117.472656 310.542969 L 117.472656 305.160156 C 117.472656 304.253906 118.214844 303.511719 119.128906 303.511719 C 120.035156 303.511719 120.769531 304.253906 120.769531 305.160156 L 120.769531 310.542969 C 120.769531 311.449219 120.035156 312.191406 119.128906 312.191406 " fill-opacity="1" fill-rule="nonzero"/></g><g clip-path="url(#e54cc257eb)"><path fill="#ffffff" d="M 113.082031 312.191406 C 112.179688 312.191406 111.441406 311.449219 111.441406 310.542969 L 111.441406 305.160156 C 111.441406 304.253906 112.179688 303.511719 113.082031 303.511719 C 113.996094 303.511719 114.730469 304.253906 114.730469 305.160156 L 114.730469 310.542969 C 114.730469 311.449219 113.996094 312.191406 113.082031 312.191406 " fill-opacity="1" fill-rule="nonzero"/></g><g clip-path="url(#ba4385bced)"><path fill="#ffffff" d="M 107.042969 312.191406 C 106.136719 312.191406 105.398438 311.449219 105.398438 310.542969 L 105.398438 305.160156 C 105.398438 304.253906 106.136719 303.511719 107.042969 303.511719 C 107.957031 303.511719 108.691406 304.253906 108.691406 305.160156 L 108.691406 310.542969 C 108.691406 311.449219 107.957031 312.191406 107.042969 312.191406 " fill-opacity="1" fill-rule="nonzero"/></g><g clip-path="url(#22e83aa565)"><path fill="#ffffff" d="M 101.011719 312.191406 C 100.105469 312.191406 99.363281 311.449219 99.363281 310.542969 L 99.363281 305.160156 C 99.363281 304.253906 100.105469 303.511719 101.011719 303.511719 C 101.917969 303.511719 102.652344 304.253906 102.652344 305.160156 L 102.652344 310.542969 C 102.652344 311.449219 101.917969 312.191406 101.011719 312.191406 " fill-opacity="1" fill-rule="nonzero"/></g><g clip-path="url(#15958a4550)"><path fill="#ffffff" d="M 94.972656 312.191406 C 94.0625 312.191406 93.324219 311.449219 93.324219 310.542969 L 93.324219 305.160156 C 93.324219 304.253906 94.0625 303.511719 94.972656 303.511719 C 95.882812 303.511719 96.617188 304.253906 96.617188 305.160156 L 96.617188 310.542969 C 96.617188 311.449219 95.882812 312.191406 94.972656 312.191406 " fill-opacity="1" fill-rule="nonzero"/></g><g clip-path="url(#e2a205636b)"><path fill="#ffffff" d="M 88.9375 312.191406 C 88.027344 312.191406 87.285156 311.449219 87.285156 310.542969 L 87.285156 305.160156 C 87.285156 304.253906 88.027344 303.511719 88.9375 303.511719 C 89.84375 303.511719 90.582031 304.253906 90.582031 305.160156 L 90.582031 310.542969 C 90.582031 311.449219 89.84375 312.191406 88.9375 312.191406 " fill-opacity="1" fill-rule="nonzero"/></g><g clip-path="url(#62cdd5802a)"><path fill="#ffffff" d="M 82.890625 312.191406 C 81.984375 312.191406 81.25 311.449219 81.25 310.542969 L 81.25 305.160156 C 81.25 304.253906 81.984375 303.511719 82.890625 303.511719 C 83.804688 303.511719 84.539062 304.253906 84.539062 305.160156 L 84.539062 310.542969 C 84.539062 311.449219 83.804688 312.191406 82.890625 312.191406 " fill-opacity="1" fill-rule="nonzero"/></g><g clip-path="url(#7d88041d32)"><path fill="#ffffff" d="M 76.855469 312.191406 C 75.945312 312.191406 75.210938 311.449219 75.210938 310.542969 L 75.210938 305.160156 C 75.210938 304.253906 75.945312 303.511719 76.855469 303.511719 C 77.761719 303.511719 78.5 304.253906 78.5 305.160156 L 78.5 310.542969 C 78.5 311.449219 77.761719 312.191406 76.855469 312.191406 " fill-opacity="1" fill-rule="nonzero"/></g><g clip-path="url(#bdb7b8eadc)"><path fill="#ffffff" d="M 70.820312 312.191406 C 69.914062 312.191406 69.171875 311.449219 69.171875 310.542969 L 69.171875 305.160156 C 69.171875 304.253906 69.914062 303.511719 70.820312 303.511719 C 71.730469 303.511719 72.460938 304.253906 72.460938 305.160156 L 72.460938 310.542969 C 72.460938 311.449219 71.730469 312.191406 70.820312 312.191406 " fill-opacity="1" fill-rule="nonzero"/></g><g clip-path="url(#19b56ceb24)"><path fill="#ffffff" d="M 64.777344 312.191406 C 63.871094 312.191406 63.132812 311.449219 63.132812 310.542969 L 63.132812 305.160156 C 63.132812 304.253906 63.871094 303.511719 64.777344 303.511719 C 65.691406 303.511719 66.425781 304.253906 66.425781 305.160156 L 66.425781 310.542969 C 66.425781 311.449219 65.691406 312.191406 64.777344 312.191406 " fill-opacity="1" fill-rule="nonzero"/></g><g clip-path="url(#7f0db2ae36)"><path fill="#ffffff" d="M 58.742188 312.191406 C 57.835938 312.191406 57.09375 311.449219 57.09375 310.542969 L 57.09375 305.160156 C 57.09375 304.253906 57.835938 303.511719 58.742188 303.511719 C 59.652344 303.511719 60.386719 304.253906 60.386719 305.160156 L 60.386719 310.542969 C 60.386719 311.449219 59.652344 312.191406 58.742188 312.191406 " fill-opacity="1" fill-rule="nonzero"/></g><g clip-path="url(#19aadd9bee)"><path fill="#ffffff" d="M 52.699219 312.191406 C 51.792969 312.191406 51.058594 311.449219 51.058594 310.542969 L 51.058594 305.160156 C 51.058594 304.253906 51.792969 303.511719 52.699219 303.511719 C 53.613281 303.511719 54.351562 304.253906 54.351562 305.160156 L 54.351562 310.542969 C 54.351562 311.449219 53.613281 312.191406 52.699219 312.191406 " fill-opacity="1" fill-rule="nonzero"/></g><g clip-path="url(#78179214ac)"><path fill="#ffffff" d="M 46.664062 312.191406 C 45.753906 312.191406 45.015625 311.449219 45.015625 310.542969 L 45.015625 305.160156 C 45.015625 304.253906 45.753906 303.511719 46.664062 303.511719 C 47.570312 303.511719 48.304688 304.253906 48.304688 305.160156 L 48.304688 310.542969 C 48.304688 311.449219 47.570312 312.191406 46.664062 312.191406 " fill-opacity="1" fill-rule="nonzero"/></g><g clip-path="url(#1d7e73f894)"><path fill="#ffffff" d="M 40.628906 312.191406 C 39.714844 312.191406 38.980469 311.449219 38.980469 310.542969 L 38.980469 305.160156 C 38.980469 304.253906 39.714844 303.511719 40.628906 303.511719 C 41.535156 303.511719 42.277344 304.253906 42.277344 305.160156 L 42.277344 310.542969 C 42.277344 311.449219 41.535156 312.191406 40.628906 312.191406 " fill-opacity="1" fill-rule="nonzero"/></g><g clip-path="url(#713dca3f11)"><path fill="#ffffff" d="M 34.585938 312.191406 C 33.679688 312.191406 32.941406 311.449219 32.941406 310.542969 L 32.941406 305.160156 C 32.941406 304.253906 33.679688 303.511719 34.585938 303.511719 C 35.492188 303.511719 36.234375 304.253906 36.234375 305.160156 L 36.234375 310.542969 C 36.234375 311.449219 35.492188 312.191406 34.585938 312.191406 " fill-opacity="1" fill-rule="nonzero"/></g><g clip-path="url(#a9dca7d2e2)"><path fill="#ffffff" d="M 28.550781 312.191406 C 27.644531 312.191406 26.90625 311.449219 26.90625 310.542969 L 26.90625 305.160156 C 26.90625 304.253906 27.644531 303.511719 28.550781 303.511719 C 29.460938 303.511719 30.199219 304.253906 30.199219 305.160156 L 30.199219 310.542969 C 30.199219 311.449219 29.460938 312.191406 28.550781 312.191406 " fill-opacity="1" fill-rule="nonzero"/></g><g clip-path="url(#34bf7e432d)"><path fill="#ffffff" d="M 22.507812 312.191406 C 21.601562 312.191406 20.867188 311.449219 20.867188 310.542969 L 20.867188 305.160156 C 20.867188 304.253906 21.601562 303.511719 22.507812 303.511719 C 23.421875 303.511719 24.160156 304.253906 24.160156 305.160156 L 24.160156 310.542969 C 24.160156 311.449219 23.421875 312.191406 22.507812 312.191406 " fill-opacity="1" fill-rule="nonzero"/></g><g clip-path="url(#82f7ab2a3d)"><path fill="#ffffff" d="M 16.476562 312.191406 C 15.5625 312.191406 14.828125 311.449219 14.828125 310.542969 L 14.828125 305.160156 C 14.828125 304.253906 15.5625 303.511719 16.476562 303.511719 C 17.382812 303.511719 18.117188 304.253906 18.117188 305.160156 L 18.117188 310.542969 C 18.117188 311.449219 17.382812 312.191406 16.476562 312.191406 " fill-opacity="1" fill-rule="nonzero"/></g><g clip-path="url(#9244f3792c)"><path fill="#ffffff" d="M 354.613281 312.191406 C 353.710938 312.191406 352.96875 311.449219 352.96875 310.542969 L 352.96875 305.160156 C 352.96875 304.253906 353.710938 303.511719 354.613281 303.511719 C 355.523438 303.511719 356.257812 304.253906 356.257812 305.160156 L 356.257812 310.542969 C 356.257812 311.449219 355.523438 312.191406 354.613281 312.191406 " fill-opacity="1" fill-rule="nonzero"/></g><g clip-path="url(#b2f6047776)"><path fill="#ffffff" d="M 348.578125 312.191406 C 347.671875 312.191406 346.933594 311.449219 346.933594 310.542969 L 346.933594 305.160156 C 346.933594 304.253906 347.671875 303.511719 348.578125 303.511719 C 349.492188 303.511719 350.226562 304.253906 350.226562 305.160156 L 350.226562 310.542969 C 350.226562 311.449219 349.492188 312.191406 348.578125 312.191406 " fill-opacity="1" fill-rule="nonzero"/></g><g clip-path="url(#22b1bca35b)"><path fill="#ffffff" d="M 342.539062 312.191406 C 341.628906 312.191406 340.886719 311.449219 340.886719 310.542969 L 340.886719 305.160156 C 340.886719 304.253906 341.628906 303.511719 342.539062 303.511719 C 343.449219 303.511719 344.183594 304.253906 344.183594 305.160156 L 344.183594 310.542969 C 344.183594 311.449219 343.449219 312.191406 342.539062 312.191406 " fill-opacity="1" fill-rule="nonzero"/></g><g clip-path="url(#0246d8b8c8)"><path fill="#ffffff" d="M 336.496094 312.191406 C 335.589844 312.191406 334.855469 311.449219 334.855469 310.542969 L 334.855469 305.160156 C 334.855469 304.253906 335.589844 303.511719 336.496094 303.511719 C 337.414062 303.511719 338.152344 304.253906 338.152344 305.160156 L 338.152344 310.542969 C 338.152344 311.449219 337.414062 312.191406 336.496094 312.191406 " fill-opacity="1" fill-rule="nonzero"/></g><g clip-path="url(#e6490b35cb)"><path fill="#ffffff" d="M 330.464844 312.191406 C 329.554688 312.191406 328.816406 311.449219 328.816406 310.542969 L 328.816406 305.160156 C 328.816406 304.253906 329.554688 303.511719 330.464844 303.511719 C 331.371094 303.511719 332.109375 304.253906 332.109375 305.160156 L 332.109375 310.542969 C 332.109375 311.449219 331.371094 312.191406 330.464844 312.191406 " fill-opacity="1" fill-rule="nonzero"/></g><g clip-path="url(#9a915dd80a)"><path fill="#ffffff" d="M 324.421875 312.191406 C 323.515625 312.191406 322.777344 311.449219 322.777344 310.542969 L 322.777344 305.160156 C 322.777344 304.253906 323.515625 303.511719 324.421875 303.511719 C 325.332031 303.511719 326.066406 304.253906 326.066406 305.160156 L 326.066406 310.542969 C 326.066406 311.449219 325.332031 312.191406 324.421875 312.191406 " fill-opacity="1" fill-rule="nonzero"/></g><g clip-path="url(#33317fdc16)"><path fill="#ffffff" d="M 318.386719 312.191406 C 317.480469 312.191406 316.742188 311.449219 316.742188 310.542969 L 316.742188 305.160156 C 316.742188 304.253906 317.480469 303.511719 318.386719 303.511719 C 319.292969 303.511719 320.035156 304.253906 320.035156 305.160156 L 320.035156 310.542969 C 320.035156 311.449219 319.292969 312.191406 318.386719 312.191406 " fill-opacity="1" fill-rule="nonzero"/></g><g clip-path="url(#0c8b7f38cd)"><path fill="#ffffff" d="M 312.347656 312.191406 C 311.4375 312.191406 310.703125 311.449219 310.703125 310.542969 L 310.703125 305.160156 C 310.703125 304.253906 311.4375 303.511719 312.347656 303.511719 C 313.257812 303.511719 313.992188 304.253906 313.992188 305.160156 L 313.992188 310.542969 C 313.992188 311.449219 313.257812 312.191406 312.347656 312.191406 " fill-opacity="1" fill-rule="nonzero"/></g><g clip-path="url(#c6619be65a)"><path fill="#ffffff" d="M 306.3125 312.191406 C 305.402344 312.191406 304.664062 311.449219 304.664062 310.542969 L 304.664062 305.160156 C 304.664062 304.253906 305.402344 303.511719 306.3125 303.511719 C 307.21875 303.511719 307.960938 304.253906 307.960938 305.160156 L 307.960938 310.542969 C 307.960938 311.449219 307.21875 312.191406 306.3125 312.191406 " fill-opacity="1" fill-rule="nonzero"/></g><g clip-path="url(#74a800a31b)"><path fill="#ffffff" d="M 300.273438 312.191406 C 299.359375 312.191406 298.625 311.449219 298.625 310.542969 L 298.625 305.160156 C 298.625 304.253906 299.359375 303.511719 300.273438 303.511719 C 301.179688 303.511719 301.917969 304.253906 301.917969 305.160156 L 301.917969 310.542969 C 301.917969 311.449219 301.179688 312.191406 300.273438 312.191406 " fill-opacity="1" fill-rule="nonzero"/></g><g clip-path="url(#bd661c7a71)"><path fill="#ffffff" d="M 294.230469 312.191406 C 293.324219 312.191406 292.59375 311.449219 292.59375 310.542969 L 292.59375 305.160156 C 292.59375 304.253906 293.324219 303.511719 294.230469 303.511719 C 295.136719 303.511719 295.878906 304.253906 295.878906 305.160156 L 295.878906 310.542969 C 295.878906 311.449219 295.136719 312.191406 294.230469 312.191406 " fill-opacity="1" fill-rule="nonzero"/></g><g clip-path="url(#687036699f)"><path fill="#ffffff" d="M 288.199219 312.191406 C 287.289062 312.191406 286.550781 311.449219 286.550781 310.542969 L 286.550781 305.160156 C 286.550781 304.253906 287.289062 303.511719 288.199219 303.511719 C 289.105469 303.511719 289.839844 304.253906 289.839844 305.160156 L 289.839844 310.542969 C 289.839844 311.449219 289.105469 312.191406 288.199219 312.191406 " fill-opacity="1" fill-rule="nonzero"/></g><g clip-path="url(#4e68d4cb92)"><path fill="#ffffff" d="M 282.15625 312.191406 C 281.246094 312.191406 280.507812 311.449219 280.507812 310.542969 L 280.507812 305.160156 C 280.507812 304.253906 281.246094 303.511719 282.15625 303.511719 C 283.066406 303.511719 283.800781 304.253906 283.800781 305.160156 L 283.800781 310.542969 C 283.800781 311.449219 283.066406 312.191406 282.15625 312.191406 " fill-opacity="1" fill-rule="nonzero"/></g><g clip-path="url(#53ec9439c2)"><path fill="#ffffff" d="M 276.117188 312.191406 C 275.207031 312.191406 274.472656 311.449219 274.472656 310.542969 L 274.472656 305.160156 C 274.472656 304.253906 275.207031 303.511719 276.117188 303.511719 C 277.027344 303.511719 277.769531 304.253906 277.769531 305.160156 L 277.769531 310.542969 C 277.769531 311.449219 277.027344 312.191406 276.117188 312.191406 " fill-opacity="1" fill-rule="nonzero"/></g><g clip-path="url(#8934e6661c)"><path fill="#ffffff" d="M 270.082031 312.191406 C 269.167969 312.191406 268.433594 311.449219 268.433594 310.542969 L 268.433594 305.160156 C 268.433594 304.253906 269.167969 303.511719 270.082031 303.511719 C 270.988281 303.511719 271.726562 304.253906 271.726562 305.160156 L 271.726562 310.542969 C 271.726562 311.449219 270.988281 312.191406 270.082031 312.191406 " fill-opacity="1" fill-rule="nonzero"/></g><g clip-path="url(#d5d861c77e)"><path fill="#ffffff" d="M 264.042969 312.191406 C 263.136719 312.191406 262.402344 311.449219 262.402344 310.542969 L 262.402344 305.160156 C 262.402344 304.253906 263.136719 303.511719 264.042969 303.511719 C 264.949219 303.511719 265.691406 304.253906 265.691406 305.160156 L 265.691406 310.542969 C 265.691406 311.449219 264.949219 312.191406 264.042969 312.191406 " fill-opacity="1" fill-rule="nonzero"/></g><g clip-path="url(#a661c4adae)"><path fill="#ffffff" d="M 258.007812 312.191406 C 257.097656 312.191406 256.359375 311.449219 256.359375 310.542969 L 256.359375 305.160156 C 256.359375 304.253906 257.097656 303.511719 258.007812 303.511719 C 258.914062 303.511719 259.648438 304.253906 259.648438 305.160156 L 259.648438 310.542969 C 259.648438 311.449219 258.914062 312.191406 258.007812 312.191406 " fill-opacity="1" fill-rule="nonzero"/></g><g clip-path="url(#c0313f8e2d)"><path fill="#ffffff" d="M 251.964844 312.191406 C 251.054688 312.191406 250.316406 311.449219 250.316406 310.542969 L 250.316406 305.160156 C 250.316406 304.253906 251.054688 303.511719 251.964844 303.511719 C 252.871094 303.511719 253.609375 304.253906 253.609375 305.160156 L 253.609375 310.542969 C 253.609375 311.449219 252.871094 312.191406 251.964844 312.191406 " fill-opacity="1" fill-rule="nonzero"/></g><g clip-path="url(#2e1829b207)"><path fill="#ffffff" d="M 245.925781 312.191406 C 245.015625 312.191406 244.28125 311.449219 244.28125 310.542969 L 244.28125 305.160156 C 244.28125 304.253906 245.015625 303.511719 245.925781 303.511719 C 246.839844 303.511719 247.578125 304.253906 247.578125 305.160156 L 247.578125 310.542969 C 247.578125 311.449219 246.839844 312.191406 245.925781 312.191406 " fill-opacity="1" fill-rule="nonzero"/></g><g clip-path="url(#ed0170e7fb)"><path fill="#ffffff" d="M 239.886719 312.191406 C 238.976562 312.191406 238.242188 311.449219 238.242188 310.542969 L 238.242188 305.160156 C 238.242188 304.253906 238.976562 303.511719 239.886719 303.511719 C 240.796875 303.511719 241.535156 304.253906 241.535156 305.160156 L 241.535156 310.542969 C 241.535156 311.449219 240.796875 312.191406 239.886719 312.191406 " fill-opacity="1" fill-rule="nonzero"/></g><g clip-path="url(#a8ac8570d7)"><path fill="#ffffff" d="M 233.851562 312.191406 C 232.945312 312.191406 232.207031 311.449219 232.207031 310.542969 L 232.207031 305.160156 C 232.207031 304.253906 232.945312 303.511719 233.851562 303.511719 C 234.757812 303.511719 235.5 304.253906 235.5 305.160156 L 235.5 310.542969 C 235.5 311.449219 234.757812 312.191406 233.851562 312.191406 " fill-opacity="1" fill-rule="nonzero"/></g><g clip-path="url(#856a236887)"><path fill="#ffffff" d="M 227.816406 312.191406 C 226.90625 312.191406 226.167969 311.449219 226.167969 310.542969 L 226.167969 305.160156 C 226.167969 304.253906 226.90625 303.511719 227.816406 303.511719 C 228.722656 303.511719 229.457031 304.253906 229.457031 305.160156 L 229.457031 310.542969 C 229.457031 311.449219 228.722656 312.191406 227.816406 312.191406 " fill-opacity="1" fill-rule="nonzero"/></g><g clip-path="url(#a30ad63c32)"><path fill="#ffffff" d="M 221.78125 312.191406 C 220.867188 312.191406 220.132812 311.449219 220.132812 310.542969 L 220.132812 305.160156 C 220.132812 304.253906 220.867188 303.511719 221.78125 303.511719 C 222.679688 303.511719 223.421875 304.253906 223.421875 305.160156 L 223.421875 310.542969 C 223.421875 311.449219 222.679688 312.191406 221.78125 312.191406 " fill-opacity="1" fill-rule="nonzero"/></g><g clip-path="url(#8937ad302a)"><path fill="#ffffff" d="M 215.738281 312.191406 C 214.828125 312.191406 214.089844 311.449219 214.089844 310.542969 L 214.089844 305.160156 C 214.089844 304.253906 214.828125 303.511719 215.738281 303.511719 C 216.648438 303.511719 217.386719 304.253906 217.386719 305.160156 L 217.386719 310.542969 C 217.386719 311.449219 216.648438 312.191406 215.738281 312.191406 " fill-opacity="1" fill-rule="nonzero"/></g><g clip-path="url(#ca2fe78866)"><path fill="#ffffff" d="M 209.695312 312.191406 C 208.785156 312.191406 208.050781 311.449219 208.050781 310.542969 L 208.050781 305.160156 C 208.050781 304.253906 208.785156 303.511719 209.695312 303.511719 C 210.605469 303.511719 211.34375 304.253906 211.34375 305.160156 L 211.34375 310.542969 C 211.34375 311.449219 210.605469 312.191406 209.695312 312.191406 " fill-opacity="1" fill-rule="nonzero"/></g><g clip-path="url(#dcd17141ca)"><path fill="#ffffff" d="M 203.660156 312.191406 C 202.753906 312.191406 202.011719 311.449219 202.011719 310.542969 L 202.011719 305.160156 C 202.011719 304.253906 202.753906 303.511719 203.660156 303.511719 C 204.566406 303.511719 205.308594 304.253906 205.308594 305.160156 L 205.308594 310.542969 C 205.308594 311.449219 204.566406 312.191406 203.660156 312.191406 " fill-opacity="1" fill-rule="nonzero"/></g><g clip-path="url(#02e315551d)"><path fill="#ffffff" d="M 197.621094 312.191406 C 196.710938 312.191406 195.976562 311.449219 195.976562 310.542969 L 195.976562 305.160156 C 195.976562 304.253906 196.710938 303.511719 197.621094 303.511719 C 198.53125 303.511719 199.265625 304.253906 199.265625 305.160156 L 199.265625 310.542969 C 199.265625 311.449219 198.53125 312.191406 197.621094 312.191406 " fill-opacity="1" fill-rule="nonzero"/></g><g clip-path="url(#90e71745c3)"><path fill="#ffffff" d="M 191.585938 312.191406 C 190.671875 312.191406 189.941406 311.449219 189.941406 310.542969 L 189.941406 305.160156 C 189.941406 304.253906 190.671875 303.511719 191.585938 303.511719 C 192.492188 303.511719 193.226562 304.253906 193.226562 305.160156 L 193.226562 310.542969 C 193.226562 311.449219 192.492188 312.191406 191.585938 312.191406 " fill-opacity="1" fill-rule="nonzero"/></g><g clip-path="url(#5d821dfcba)"><path fill="#ffffff" d="M 185.546875 312.191406 C 184.636719 312.191406 183.898438 311.449219 183.898438 310.542969 L 183.898438 305.160156 C 183.898438 304.253906 184.636719 303.511719 185.546875 303.511719 C 186.453125 303.511719 187.1875 304.253906 187.1875 305.160156 L 187.1875 310.542969 C 187.1875 311.449219 186.453125 312.191406 185.546875 312.191406 " fill-opacity="1" fill-rule="nonzero"/></g><g clip-path="url(#b195d64a45)"><path fill="#ffffff" d="M 179.503906 312.191406 C 178.59375 312.191406 177.859375 311.449219 177.859375 310.542969 L 177.859375 305.160156 C 177.859375 304.253906 178.59375 303.511719 179.503906 303.511719 C 180.414062 303.511719 181.152344 304.253906 181.152344 305.160156 L 181.152344 310.542969 C 181.152344 311.449219 180.414062 312.191406 179.503906 312.191406 " fill-opacity="1" fill-rule="nonzero"/></g><g clip-path="url(#3604998416)"><path fill="#ffffff" d="M 173.472656 312.191406 C 172.5625 312.191406 171.824219 311.449219 171.824219 310.542969 L 171.824219 305.160156 C 171.824219 304.253906 172.5625 303.511719 173.472656 303.511719 C 174.378906 303.511719 175.117188 304.253906 175.117188 305.160156 L 175.117188 310.542969 C 175.117188 311.449219 174.378906 312.191406 173.472656 312.191406 " fill-opacity="1" fill-rule="nonzero"/></g><g clip-path="url(#e62f05aa5a)"><path fill="#ffffff" d="M 167.429688 312.191406 C 166.519531 312.191406 165.785156 311.449219 165.785156 310.542969 L 165.785156 305.160156 C 165.785156 304.253906 166.519531 303.511719 167.429688 303.511719 C 168.339844 303.511719 169.074219 304.253906 169.074219 305.160156 L 169.074219 310.542969 C 169.074219 311.449219 168.339844 312.191406 167.429688 312.191406 " fill-opacity="1" fill-rule="nonzero"/></g><g clip-path="url(#d4393c858f)"><path fill="#ffffff" d="M 161.394531 312.191406 C 160.488281 312.191406 159.746094 311.449219 159.746094 310.542969 L 159.746094 305.160156 C 159.746094 304.253906 160.488281 303.511719 161.394531 303.511719 C 162.300781 303.511719 163.039062 304.253906 163.039062 305.160156 L 163.039062 310.542969 C 163.039062 311.449219 162.300781 312.191406 161.394531 312.191406 " fill-opacity="1" fill-rule="nonzero"/></g><g clip-path="url(#b165f03621)"><path fill="#ffffff" d="M 155.355469 312.191406 C 154.445312 312.191406 153.707031 311.449219 153.707031 310.542969 L 153.707031 305.160156 C 153.707031 304.253906 154.445312 303.511719 155.355469 303.511719 C 156.265625 303.511719 156.996094 304.253906 156.996094 305.160156 L 156.996094 310.542969 C 156.996094 311.449219 156.265625 312.191406 155.355469 312.191406 " fill-opacity="1" fill-rule="nonzero"/></g><g clip-path="url(#8f4c101ccf)"><path fill="#ffffff" d="M 149.3125 312.191406 C 148.402344 312.191406 147.664062 311.449219 147.664062 310.542969 L 147.664062 305.160156 C 147.664062 304.253906 148.402344 303.511719 149.3125 303.511719 C 150.222656 303.511719 150.960938 304.253906 150.960938 305.160156 L 150.960938 310.542969 C 150.960938 311.449219 150.222656 312.191406 149.3125 312.191406 " fill-opacity="1" fill-rule="nonzero"/></g><g clip-path="url(#074fc47cd4)"><path fill="#ffffff" d="M 143.273438 312.191406 C 142.367188 312.191406 141.632812 311.449219 141.632812 310.542969 L 141.632812 305.160156 C 141.632812 304.253906 142.367188 303.511719 143.273438 303.511719 C 144.1875 303.511719 144.925781 304.253906 144.925781 305.160156 L 144.925781 310.542969 C 144.925781 311.449219 144.1875 312.191406 143.273438 312.191406 " fill-opacity="1" fill-rule="nonzero"/></g><g clip-path="url(#88b7af7f28)"><path fill="#ffffff" d="M 137.234375 312.191406 C 136.328125 312.191406 135.59375 311.449219 135.59375 310.542969 L 135.59375 305.160156 C 135.59375 304.253906 136.328125 303.511719 137.234375 303.511719 C 138.148438 303.511719 138.882812 304.253906 138.882812 305.160156 L 138.882812 310.542969 C 138.882812 311.449219 138.148438 312.191406 137.234375 312.191406 " fill-opacity="1" fill-rule="nonzero"/></g><g clip-path="url(#bd79e6c296)"><path fill="#ffffff" d="M 131.203125 312.191406 C 130.296875 312.191406 129.554688 311.449219 129.554688 310.542969 L 129.554688 305.160156 C 129.554688 304.253906 130.296875 303.511719 131.203125 303.511719 C 132.109375 303.511719 132.847656 304.253906 132.847656 305.160156 L 132.847656 310.542969 C 132.847656 311.449219 132.109375 312.191406 131.203125 312.191406 " fill-opacity="1" fill-rule="nonzero"/></g><g clip-path="url(#6f365ce74a)"><path fill="#ffffff" d="M 125.164062 312.191406 C 124.253906 312.191406 123.515625 311.449219 123.515625 310.542969 L 123.515625 305.160156 C 123.515625 304.253906 124.253906 303.511719 125.164062 303.511719 C 126.074219 303.511719 126.808594 304.253906 126.808594 305.160156 L 126.808594 310.542969 C 126.808594 311.449219 126.074219 312.191406 125.164062 312.191406 " fill-opacity="1" fill-rule="nonzero"/></g><path fill="#d9d9d9" d="M 7.960938 309.136719 C 7.277344 309.136719 6.601562 308.929688 6.003906 308.492188 C 4.546875 307.410156 4.234375 305.347656 5.320312 303.890625 L 41.554688 254.90625 C 42.160156 254.097656 43.097656 253.601562 44.105469 253.570312 C 45.132812 253.546875 46.074219 253.96875 46.722656 254.742188 L 74.828125 288.039062 L 122.683594 233.253906 C 123.304688 232.535156 124.210938 232.125 125.164062 232.125 L 160.335938 232.125 L 264.296875 157.578125 C 265.464844 156.738281 267.035156 156.753906 268.1875 157.621094 L 317.316406 194.417969 L 367.90625 101.132812 C 368.773438 99.539062 370.765625 98.945312 372.367188 99.816406 C 373.964844 100.679688 374.554688 102.679688 373.691406 104.273438 L 321.28125 200.90625 C 320.824219 201.742188 320.023438 202.351562 319.089844 202.554688 C 318.15625 202.753906 317.175781 202.542969 316.414062 201.972656 L 266.171875 164.332031 L 163.308594 238.097656 C 162.75 238.496094 162.078125 238.710938 161.394531 238.710938 L 126.65625 238.710938 L 77.265625 295.257812 C 76.640625 295.976562 75.738281 296.386719 74.785156 296.386719 L 74.757812 296.386719 C 73.800781 296.371094 72.890625 295.945312 72.277344 295.21875 L 44.382812 262.167969 L 10.613281 307.804688 C 9.960938 308.679688 8.96875 309.136719 7.960938 309.136719 " fill-opacity="1" fill-rule="nonzero"/><path fill="#d9d9d9" d="M 7.96875 309.136719 C 7.675781 309.136719 7.375 309.09375 7.070312 309.015625 C 5.320312 308.519531 4.308594 306.699219 4.800781 304.957031 L 31.417969 210.675781 C 31.765625 209.445312 32.789062 208.53125 34.046875 208.324219 L 87.417969 199.433594 L 132.488281 157.832031 C 133.160156 157.207031 134.066406 156.902344 134.972656 156.96875 C 135.894531 157.035156 136.734375 157.492188 137.304688 158.207031 L 220.558594 263.210938 L 248.835938 177.335938 C 249.242188 176.109375 250.320312 175.234375 251.597656 175.09375 L 305.164062 169.140625 L 368.992188 127.304688 C 370.511719 126.308594 372.558594 126.734375 373.550781 128.253906 C 374.546875 129.773438 374.125 131.808594 372.601562 132.8125 L 308.109375 175.082031 C 307.683594 175.363281 307.1875 175.539062 306.671875 175.59375 L 254.429688 181.402344 L 224.898438 271.070312 C 224.519531 272.222656 223.539062 273.074219 222.355469 273.28125 C 221.15625 273.496094 219.945312 273.035156 219.191406 272.085938 L 134.347656 165.078125 L 91.164062 204.9375 C 90.695312 205.375 90.105469 205.664062 89.472656 205.765625 L 37.1875 214.472656 L 11.132812 306.738281 C 10.722656 308.191406 9.402344 309.136719 7.96875 309.136719 " fill-opacity="1" fill-rule="nonzero"/><path fill="#d9d9d9" d="M 7.960938 309.136719 C 6.472656 309.136719 5.121094 308.113281 4.761719 306.597656 C 4.347656 304.835938 5.441406 303.0625 7.210938 302.640625 L 263.902344 242.09375 L 282.527344 117.496094 C 282.71875 116.214844 283.640625 115.171875 284.886719 114.816406 L 369.898438 90.664062 C 371.644531 90.167969 373.46875 91.179688 373.964844 92.929688 C 374.460938 94.679688 373.441406 96.5 371.695312 96.996094 L 288.726562 120.570312 L 270.082031 245.273438 C 269.882812 246.605469 268.890625 247.683594 267.585938 247.992188 L 8.730469 309.046875 C 8.460938 309.113281 8.21875 309.136719 7.960938 309.136719 " fill-opacity="1" fill-rule="nonzero"/><path fill="#d9d9d9" d="M 7.96875 309.136719 C 7.585938 309.136719 7.210938 309.074219 6.824219 308.929688 C 5.121094 308.304688 4.25 306.414062 4.875 304.710938 L 49.613281 183.269531 C 50.164062 181.769531 51.714844 180.886719 53.277344 181.164062 L 81.132812 186.125 L 118.984375 116.414062 C 119.707031 115.078125 121.25 114.410156 122.722656 114.804688 L 166.441406 126.390625 L 219.449219 73.390625 C 220.363281 72.476562 221.726562 72.179688 222.9375 72.636719 L 285.816406 96.363281 L 369.695312 66.574219 C 371.410156 65.964844 373.292969 66.859375 373.898438 68.574219 C 374.503906 70.289062 373.609375 72.171875 371.898438 72.777344 L 286.886719 102.96875 C 286.152344 103.230469 285.351562 103.226562 284.621094 102.949219 L 222.59375 79.546875 L 169.761719 132.390625 C 168.933594 133.21875 167.71875 133.539062 166.589844 133.242188 L 123.539062 121.828125 L 85.789062 191.359375 C 85.109375 192.601562 83.710938 193.265625 82.316406 193.027344 L 54.839844 188.128906 L 11.058594 306.984375 C 10.5625 308.3125 9.308594 309.136719 7.96875 309.136719 " fill-opacity="1" fill-rule="nonzero"/><g fill="#d9d9d9" fill-opacity="1"><g transform="translate(174.188314, 214.466456)"><g><path d="M 1.1875 -0.828125 C 1.1875 -1.179688 1.265625 -1.445312 1.421875 -1.625 C 1.585938 -1.800781 1.816406 -1.890625 2.109375 -1.890625 C 2.410156 -1.890625 2.644531 -1.800781 2.8125 -1.625 C 2.988281 -1.445312 3.078125 -1.179688 3.078125 -0.828125 C 3.078125 -0.492188 2.988281 -0.234375 2.8125 -0.046875 C 2.644531 0.140625 2.410156 0.234375 2.109375 0.234375 C 1.847656 0.234375 1.628906 0.148438 1.453125 -0.015625 C 1.273438 -0.179688 1.1875 -0.453125 1.1875 -0.828125 Z M 1.1875 -0.828125 "/></g></g></g></svg>